<svg width="50" height="37" viewBox="0 0 50 37" fill="none" xmlns="http://www.w3.org/2000/svg">
<path d="M49.1141 4.68722C49.0082 4.01498 48.7006 3.39079 48.2319 2.89741C47.7632 2.40403 47.1556 2.06477 46.4896 1.92463L38.3814 0.142757C37.5119 -0.0468791 36.6118 -0.0475909 35.742 0.140669C34.8722 0.328929 34.053 0.70177 33.3397 1.23398L9.37421 18.6936L2.66112 18.4173C2.12147 18.398 1.58945 18.5492 1.14063 18.8495C0.691804 19.1497 0.349 19.5838 0.160904 20.0899C-0.0271928 20.5961 -0.0510183 21.1487 0.0928113 21.6692C0.236641 22.1897 0.540813 22.6516 0.962124 22.9894L7.8686 28.4179C8.69738 29.4262 9.2499 29.2328 22.9662 21.76L24.2508 34.7718C24.2721 35.1268 24.3938 35.4684 24.6017 35.7569C24.8095 36.0455 25.095 36.2691 25.4249 36.4018C25.6622 36.4956 25.9155 36.5425 26.1708 36.5399C26.6845 36.5242 27.1752 36.323 27.5521 35.9736L30.8534 32.9623C31.1821 32.6578 31.4047 32.256 31.4888 31.8159L34.5138 15.3784C39.445 12.6159 44.1138 10.019 47.4427 8.12665C48.0383 7.79163 48.5174 7.28282 48.8161 6.66822C49.1147 6.05361 49.2187 5.36249 49.1141 4.68722ZM46.0752 5.72319C42.622 7.68463 37.7875 10.4334 32.5938 13.2789L32.0275 13.5966L28.809 31.0976L26.7785 32.9485L25.2591 17.3399L23.422 18.2792C13.5181 23.8044 10.2168 25.4067 9.08414 25.9039L3.14457 21.1937L10.1616 21.4976L35.0249 3.45787C35.4157 3.16569 35.8638 2.9593 36.3398 2.85218C36.8159 2.74507 37.3092 2.73965 37.7875 2.83628L45.868 4.57672C45.9926 4.59929 46.1066 4.66105 46.1936 4.75298C46.2805 4.84491 46.3359 4.96222 46.3515 5.0878C46.3799 5.20933 46.3684 5.3368 46.3186 5.45126C46.2689 5.56573 46.1835 5.66109 46.0752 5.72319Z" fill="#687EFF"/>
<path d="M9.37255 10.7376L14.29 12.1189L16.5553 10.4752L11.0301 8.87288L13.5164 7.35345L21.0721 7.13245L24.2491 4.82568L13.5164 5.15719C13.1781 5.13889 12.8418 5.22056 12.5495 5.39201L8.91672 7.5054C8.61638 7.68332 8.37543 7.94616 8.22424 8.26081C8.07305 8.57545 8.01838 8.92781 8.06713 9.27347C8.11588 9.61913 8.26586 9.94263 8.49817 10.2032C8.73048 10.4637 9.03472 10.6497 9.37255 10.7376Z" fill="#687EFF"/>
</svg>
