<svg width="7" height="12" viewBox="0 0 7 12" fill="none" xmlns="http://www.w3.org/2000/svg">
<path d="M1.57698 1.05326L1.577 1.05329L5.82446 5.5506C5.93851 5.67123 6.00205 5.83094 6.00205 5.99695C6.00205 6.16295 5.93851 6.32267 5.82446 6.4433L1.57842 10.9396C1.57817 10.9399 1.57793 10.9401 1.57768 10.9404C1.5196 11.0034 1.44962 11.0543 1.37177 11.0902C1.29359 11.1262 1.20904 11.1463 1.12302 11.1493C1.037 11.1524 0.951235 11.1383 0.870702 11.108L0.923629 10.9676L0.8707 11.108C0.790165 11.0776 0.716467 11.0315 0.653887 10.9724L0.756871 10.8634L0.653886 10.9724C0.591306 10.9133 0.541092 10.8424 0.506159 10.7637C0.471227 10.6851 0.452274 10.6002 0.4504 10.5142C0.448525 10.4281 0.463768 10.3426 0.495243 10.2625C0.526581 10.1827 0.573388 10.1099 0.632964 10.0483C0.633223 10.0481 0.633483 10.0478 0.633743 10.0475L4.45875 5.99696L0.632356 1.94591C0.573743 1.88388 0.527923 1.81092 0.497509 1.73119C0.467094 1.65146 0.452682 1.56651 0.455094 1.48121C0.457508 1.39591 0.476699 1.31192 0.511572 1.23403C0.546445 1.15614 0.596318 1.08589 0.658343 1.02728C0.720368 0.968665 0.79333 0.922844 0.873063 0.892429C0.952796 0.862015 1.03774 0.847603 1.12304 0.850016C1.20834 0.852429 1.29234 0.87162 1.37022 0.906493C1.44811 0.941367 1.51836 0.99124 1.57698 1.05326Z" fill="white" stroke="white" stroke-width="0.3"/>
</svg>
