<svg width="12" height="12" viewBox="0 0 12 12" fill="none" xmlns="http://www.w3.org/2000/svg">
<path d="M4.95801 10.9492L5.5166 11.5078C5.77051 11.7363 6.15137 11.7363 6.37988 11.5078L11.3057 6.55664C11.5596 6.32812 11.5596 5.94727 11.3057 5.71875L6.37988 0.767578C6.15137 0.539062 5.74512 0.539062 5.5166 0.767578L4.95801 1.32617C4.7041 1.58008 4.72949 1.96094 4.95801 2.21484L8.03027 5.10938H0.717773C0.387695 5.10938 0.108398 5.38867 0.108398 5.71875V6.53125C0.108398 6.88672 0.387695 7.14062 0.717773 7.14062H8.03027L4.95801 10.0605C4.72949 10.3145 4.7041 10.6953 4.95801 10.9492Z" fill="#687EFF"/>
</svg>
