<svg width="22" height="22" viewBox="0 0 22 22" fill="none" xmlns="http://www.w3.org/2000/svg">
<path d="M11.3287 0.632324C5.48061 0.632324 0.695801 5.41713 0.695801 11.2652C0.695801 17.1133 5.48061 21.8981 11.3287 21.8981C17.1768 21.8981 21.9616 17.1133 21.9616 11.2652C21.9616 5.41713 17.1768 0.632324 11.3287 0.632324ZM11.3287 19.7716C6.6396 19.7716 2.82238 15.9543 2.82238 11.2652C2.82238 6.57612 6.6396 2.75891 11.3287 2.75891C16.0178 2.75891 19.835 6.57612 19.835 11.2652C19.835 15.9543 16.0178 19.7716 11.3287 19.7716ZM16.2092 6.56549L9.20213 13.5726L6.44821 10.8293L4.94897 12.3285L9.20213 16.5817L17.7085 8.07536L16.2092 6.56549Z" fill="#687EFF"/>
</svg>
