<svg width="45" height="35" viewBox="0 0 45 35" fill="none" xmlns="http://www.w3.org/2000/svg">
<path d="M44.5173 16.9172L39.734 5.756C39.6119 5.46781 39.4077 5.22191 39.1469 5.04895C38.886 4.876 38.58 4.78364 38.267 4.78338H33.4837V1.59446C33.4837 1.17158 33.3157 0.766026 33.0167 0.467007C32.7176 0.167988 32.3121 0 31.8892 0H1.59446C1.17158 0 0.766026 0.167988 0.467007 0.467007C0.167987 0.766026 0 1.17158 0 1.59446V28.7003C0 29.1232 0.167987 29.5287 0.467007 29.8277C0.766026 30.1268 1.17158 30.2947 1.59446 30.2947H5.00661C5.37378 31.6458 6.17535 32.8386 7.28764 33.6889C8.39992 34.5393 9.76112 35 11.1612 35C12.5613 35 13.9225 34.5393 15.0348 33.6889C16.1471 32.8386 16.9487 31.6458 17.3158 30.2947H27.3291C27.6962 31.6458 28.4978 32.8386 29.6101 33.6889C30.7224 34.5393 32.0836 35 33.4837 35C34.8838 35 36.245 34.5393 37.3573 33.6889C38.4695 32.8386 39.2711 31.6458 39.6383 30.2947H43.0504C43.4733 30.2947 43.8789 30.1268 44.1779 29.8277C44.4769 29.5287 44.6449 29.1232 44.6449 28.7003V17.5391C44.6445 17.3253 44.6011 17.1139 44.5173 16.9172ZM33.4837 7.9723H37.2147L40.6269 15.9446H33.4837V7.9723ZM11.1612 31.8892C10.5305 31.8892 9.91397 31.7022 9.38955 31.3518C8.86514 31.0014 8.45641 30.5033 8.21504 29.9206C7.97368 29.3379 7.91053 28.6967 8.03358 28.0782C8.15662 27.4596 8.46034 26.8914 8.90631 26.4454C9.35229 25.9994 9.9205 25.6957 10.5391 25.5726C11.1577 25.4496 11.7989 25.5127 12.3816 25.7541C12.9643 25.9955 13.4623 26.4042 13.8127 26.9286C14.1631 27.453 14.3501 28.0696 14.3501 28.7003C14.3501 29.546 14.0142 30.3572 13.4161 30.9552C12.8181 31.5532 12.007 31.8892 11.1612 31.8892ZM27.3291 27.1058H17.3158C16.9487 25.7547 16.1471 24.562 15.0348 23.7116C13.9225 22.8613 12.5613 22.4006 11.1612 22.4006C9.76112 22.4006 8.39992 22.8613 7.28764 23.7116C6.17535 24.562 5.37378 25.7547 5.00661 27.1058H3.18892V3.18892H30.2947V23.2153C29.5687 23.6367 28.933 24.1973 28.4241 24.8649C27.9151 25.5326 27.543 26.2941 27.3291 27.1058ZM33.4837 31.8892C32.853 31.8892 32.2364 31.7022 31.712 31.3518C31.1876 31.0014 30.7789 30.5033 30.5375 29.9206C30.2961 29.3379 30.233 28.6967 30.356 28.0782C30.4791 27.4596 30.7828 26.8914 31.2288 26.4454C31.6747 25.9994 32.243 25.6957 32.8615 25.5726C33.4801 25.4496 34.1213 25.5127 34.704 25.7541C35.2867 25.9955 35.7848 26.4042 36.1352 26.9286C36.4856 27.453 36.6726 28.0696 36.6726 28.7003C36.6726 29.546 36.3366 30.3572 35.7386 30.9552C35.1405 31.5532 34.3294 31.8892 33.4837 31.8892ZM41.456 27.1058H39.6383C39.2857 25.7402 38.4904 24.53 37.3768 23.6645C36.2632 22.799 34.8941 22.327 33.4837 22.3224V19.1335H41.456V27.1058Z" fill="#687EFF"/>
</svg>
