<svg width="44" height="35" viewBox="0 0 44 35" fill="none" xmlns="http://www.w3.org/2000/svg">
<path d="M8.6 7.28H41.6L37.413 21.932C37.0975 23.035 36.4314 24.0052 35.5154 24.6958C34.5994 25.3865 33.4834 25.7601 32.3362 25.76H14.6482C13.3479 25.7607 12.0931 25.2816 11.1242 24.4145C10.1552 23.5474 9.54031 22.3532 9.39728 21.0608L7.28 2H2" stroke="#687EFF" stroke-width="4" stroke-linecap="round" stroke-linejoin="round"/>
<path d="M13.8744 34.9998C15.3324 34.9998 16.5144 33.8179 16.5144 32.3598C16.5144 30.9018 15.3324 29.7198 13.8744 29.7198C12.4163 29.7198 11.2344 30.9018 11.2344 32.3598C11.2344 33.8179 12.4163 34.9998 13.8744 34.9998Z" fill="#687EFF"/>
<path d="M34.9916 35C36.4496 35 37.6316 33.818 37.6316 32.36C37.6316 30.9019 36.4496 29.72 34.9916 29.72C33.5335 29.72 32.3516 30.9019 32.3516 32.36C32.3516 33.818 33.5335 35 34.9916 35Z" fill="#687EFF"/>
</svg>
