<svg width="24" height="19" viewBox="0 0 24 19" fill="none" xmlns="http://www.w3.org/2000/svg">
<path d="M4.6 3.88H22.6L20.3162 11.872C20.1441 12.4736 19.7807 13.0028 19.2811 13.3795C18.7815 13.7563 18.1728 13.96 17.547 13.96H7.89904C7.18979 13.9604 6.50533 13.6991 5.97681 13.2261C5.4483 12.7531 5.1129 12.1017 5.03488 11.3968L3.88 1H1" stroke="white" stroke-width="2" stroke-linecap="round" stroke-linejoin="round"/>
<path d="M7.48053 18.9999C8.27582 18.9999 8.92053 18.3552 8.92053 17.5599C8.92053 16.7646 8.27582 16.1199 7.48053 16.1199C6.68524 16.1199 6.04053 16.7646 6.04053 17.5599C6.04053 18.3552 6.68524 18.9999 7.48053 18.9999Z" fill="white"/>
<path d="M19.0001 18.9999C19.7953 18.9999 20.4401 18.3552 20.4401 17.5599C20.4401 16.7646 19.7953 16.1199 19.0001 16.1199C18.2048 16.1199 17.5601 16.7646 17.5601 17.5599C17.5601 18.3552 18.2048 18.9999 19.0001 18.9999Z" fill="white"/>
</svg>
