<svg width="34" height="34" viewBox="0 0 34 34" fill="none" xmlns="http://www.w3.org/2000/svg">
<path d="M16.8672 0C26.1826 0 33.7338 7.55121 33.7338 16.8667C33.7338 26.1821 26.1826 33.7333 16.8672 33.7333C7.5517 33.7333 0.000488281 26.1821 0.000488281 16.8667C0.000488281 7.55121 7.5517 0 16.8672 0ZM16.8672 3.37333C13.2885 3.37333 9.85642 4.79495 7.32593 7.32544C4.79544 9.85593 3.37382 13.288 3.37382 16.8667C3.37382 20.4453 4.79544 23.8774 7.32593 26.4079C9.85642 28.9384 13.2885 30.36 16.8672 30.36C20.4458 30.36 23.8779 28.9384 26.4084 26.4079C28.9389 23.8774 30.3605 20.4453 30.3605 16.8667C30.3605 13.288 28.9389 9.85593 26.4084 7.32544C23.8779 4.79495 20.4458 3.37333 16.8672 3.37333ZM16.8672 6.74667C17.2803 6.74672 17.679 6.89839 17.9877 7.17291C18.2964 7.44743 18.4937 7.82571 18.542 8.23599L18.5538 8.43333V16.1684L23.1196 20.7342C23.4221 21.0377 23.5978 21.445 23.6108 21.8733C23.6239 22.3017 23.4735 22.7189 23.1901 23.0403C22.9066 23.3618 22.5115 23.5632 22.0849 23.6039C21.6583 23.6445 21.2322 23.5213 20.8932 23.2591L20.7347 23.1191L15.6747 18.0591C15.4125 17.7968 15.2442 17.4553 15.1957 17.0876L15.1805 16.8667V8.43333C15.1805 7.986 15.3582 7.55699 15.6745 7.24068C15.9908 6.92437 16.4198 6.74667 16.8672 6.74667Z" fill="#687EFF"/>
</svg>
