<svg width="39" height="39" viewBox="0 0 39 39" fill="none" xmlns="http://www.w3.org/2000/svg">
<path d="M2 37H5.88889M5.88889 37H33.1111M5.88889 37V14.3044M37 37H33.1111M33.1111 37V14.3044M5.88889 14.3044C5.81619 14.2627 5.74485 14.2186 5.675 14.1722L4.625 13.4722C3.88272 12.9771 3.33327 12.2418 3.06881 11.3897C2.80434 10.5375 2.84095 9.62031 3.1725 8.79194L4.91083 4.44417C5.19956 3.72259 5.69787 3.10408 6.34148 2.66843C6.98509 2.23277 7.74447 1.99995 8.52167 2H30.4783C31.2555 1.99995 32.0149 2.23277 32.6585 2.66843C33.3021 3.10408 33.8004 3.72259 34.0892 4.44417L35.8275 8.79194C36.159 9.62031 36.1957 10.5375 35.9312 11.3897C35.6667 12.2418 35.1173 12.9771 34.375 13.4722L33.325 14.1722C33.2551 14.2186 33.1838 14.2627 33.1111 14.3044M5.88889 14.3044C6.51704 14.6672 7.23413 14.8471 7.95914 14.8238C8.68416 14.8004 9.38818 14.5747 9.99167 14.1722L13.6667 11.7222L17.3417 14.1722C17.9807 14.5986 18.7318 14.8261 19.5 14.8261C20.2682 14.8261 21.0193 14.5986 21.6583 14.1722L25.3333 11.7222L29.0083 14.1722C29.6118 14.5747 30.3158 14.8004 31.0409 14.8238C31.7659 14.8471 32.483 14.6672 33.1111 14.3044" stroke="#687EFF" stroke-width="2.4" stroke-linecap="round" stroke-linejoin="round"/>
<path d="M23.3891 37V27.2778C23.3891 26.2464 22.9794 25.2573 22.2501 24.5279C21.5208 23.7986 20.5316 23.3889 19.5002 23.3889C18.4688 23.3889 17.4797 23.7986 16.7504 24.5279C16.021 25.2573 15.6113 26.2464 15.6113 27.2778V37" stroke="#687EFF" stroke-width="2.4"/>
</svg>
