<svg width="22" height="22" viewBox="0 0 22 22" fill="none" xmlns="http://www.w3.org/2000/svg">
<path d="M11 0C17.0753 0 22 4.9247 22 11C22 17.0753 17.0753 22 11 22C4.9247 22 0 17.0753 0 11C0 4.9247 4.9247 0 11 0ZM11 2.2C8.66609 2.2 6.42778 3.12714 4.77746 4.77746C3.12714 6.42778 2.2 8.66609 2.2 11C2.2 13.3339 3.12714 15.5722 4.77746 17.2225C6.42778 18.8729 8.66609 19.8 11 19.8C13.3339 19.8 15.5722 18.8729 17.2225 17.2225C18.8729 15.5722 19.8 13.3339 19.8 11C19.8 8.66609 18.8729 6.42778 17.2225 4.77746C15.5722 3.12714 13.3339 2.2 11 2.2ZM11 3.3C12.1198 3.3 13.1835 3.5387 14.1438 3.9688L12.4245 5.687C11.2547 5.37277 10.0139 5.45349 8.89471 5.91662C7.77549 6.37975 6.84046 7.1994 6.23475 8.24832C5.62905 9.29725 5.38654 10.5168 5.54487 11.7176C5.7032 12.9185 6.25352 14.0335 7.1104 14.8896L5.555 16.445L5.3834 16.2679C4.35581 15.1724 3.67106 13.8003 3.41346 12.3205C3.15587 10.8408 3.33668 9.318 3.93364 7.93972C4.5306 6.56143 5.51763 5.38783 6.77319 4.56344C8.02874 3.73905 9.49799 3.29988 11 3.3ZM18.0312 7.8573C18.4602 8.8165 18.7 9.8813 18.7 11C18.7012 12.0114 18.5025 13.013 18.1156 13.9474C17.7286 14.8818 17.1609 15.7306 16.445 16.445L14.8896 14.8896C15.5733 14.2073 16.0649 13.3567 16.3148 12.4237C16.5647 11.4906 16.5641 10.5082 16.313 9.5755L18.0312 7.8573ZM15.6662 4.7773L17.2227 6.3327L13.1263 10.4313C13.2131 10.7573 13.2238 11.0988 13.1577 11.4296C13.0915 11.7604 12.9503 12.0716 12.7448 12.3391C12.5393 12.6067 12.2751 12.8234 11.9726 12.9727C11.6701 13.122 11.3373 13.1997 11 13.2C10.6872 13.1994 10.3782 13.1322 10.0934 13.0027C9.8087 12.8732 9.55485 12.6845 9.34881 12.4492C9.14277 12.2139 8.98928 11.9373 8.89858 11.638C8.80788 11.3386 8.78205 11.0234 8.82281 10.7133C8.86358 10.4032 8.97 10.1053 9.13498 9.83958C9.29996 9.57384 9.51971 9.34635 9.77957 9.17226C10.0394 8.99817 10.3334 8.88149 10.6419 8.83001C10.9504 8.77853 11.2664 8.79342 11.5687 8.8737L15.6662 4.7773Z" fill="#687EFF"/>
</svg>
