<svg width="20" height="24" viewBox="0 0 20 24" fill="none" xmlns="http://www.w3.org/2000/svg">
<path d="M12.982 0.9H12.982C13.5389 0.900119 14.073 1.12144 14.4667 1.51529L12.982 0.9ZM12.982 0.9H3C2.44305 0.9 1.9089 1.12125 1.51508 1.51508C1.12125 1.9089 0.9 2.44305 0.9 3V21C0.9 21.557 1.12125 22.0911 1.51508 22.4849C1.9089 22.8787 2.44305 23.1 3 23.1H17C17.557 23.1 18.0911 22.8787 18.4849 22.4849C18.8787 22.0911 19.1 21.557 19.1 21V7.018C19.0999 6.46107 18.8786 5.92702 18.4847 5.53329C18.4847 5.53329 18.4847 5.53328 18.4847 5.53328L14.4667 1.5153L12.982 0.9ZM13.1 2.61732V6.5C13.1 6.60609 13.1421 6.70783 13.2172 6.78284C13.2922 6.85786 13.3939 6.9 13.5 6.9H17.3827C17.3637 6.83812 17.3298 6.78125 17.2833 6.73471L13.1 2.61732ZM13.1 2.61732C13.1619 2.63632 13.2188 2.67022 13.2653 2.71671C13.2653 2.71672 13.2653 2.71673 13.2653 2.71674L17.2833 6.73468L13.1 2.61732ZM2.71716 2.71716C2.79217 2.64214 2.89391 2.6 3 2.6H11.4V6.5C11.4 7.05695 11.6213 7.5911 12.0151 7.98492C12.4089 8.37875 12.943 8.6 13.5 8.6H17.4V21C17.4 21.1061 17.3579 21.2078 17.2828 21.2828C17.2078 21.3579 17.1061 21.4 17 21.4H3C2.89391 21.4 2.79217 21.3579 2.71716 21.2828C2.64214 21.2078 2.6 21.1061 2.6 21V3C2.6 2.89391 2.64214 2.79217 2.71716 2.71716Z" fill="#687EFF" stroke="#687EFF" stroke-width="0.2"/>
</svg>
