<svg width="21" height="22" viewBox="0 0 21 22" fill="none" xmlns="http://www.w3.org/2000/svg">
<path d="M10.6949 7.73105C8.8154 7.73105 7.28159 9.26486 7.28159 11.1443C7.28159 13.0238 8.8154 14.5576 10.6949 14.5576C12.5744 14.5576 14.1082 13.0238 14.1082 11.1443C14.1082 9.26486 12.5744 7.73105 10.6949 7.73105ZM20.9322 11.1443C20.9322 9.73089 20.945 8.33023 20.8656 6.91933C20.7863 5.28054 20.4124 3.82611 19.214 2.62775C18.0131 1.42682 16.5613 1.05553 14.9225 0.976151C13.509 0.896772 12.1083 0.909575 10.6974 0.909575C9.28399 0.909575 7.88333 0.896772 6.47244 0.976151C4.83364 1.05553 3.37921 1.42938 2.18085 2.62775C0.97992 3.82867 0.608631 5.28054 0.529252 6.91933C0.449873 8.33279 0.462676 9.73345 0.462676 11.1443C0.462676 12.5552 0.449873 13.9585 0.529252 15.3694C0.608631 17.0082 0.98248 18.4626 2.18085 19.6609C3.38177 20.8619 4.83364 21.2332 6.47244 21.3125C7.88589 21.3919 9.28655 21.3791 10.6974 21.3791C12.1109 21.3791 13.5116 21.3919 14.9225 21.3125C16.5613 21.2332 18.0157 20.8593 19.214 19.6609C20.415 18.46 20.7863 17.0082 20.8656 15.3694C20.9476 13.9585 20.9322 12.5578 20.9322 11.1443ZM10.6949 16.3962C7.78859 16.3962 5.44307 14.0506 5.44307 11.1443C5.44307 8.23805 7.78859 5.89253 10.6949 5.89253C13.6012 5.89253 15.9467 8.23805 15.9467 11.1443C15.9467 14.0506 13.6012 16.3962 10.6949 16.3962ZM16.1618 6.90397C15.4832 6.90397 14.9353 6.356 14.9353 5.67744C14.9353 4.99887 15.4832 4.4509 16.1618 4.4509C16.8404 4.4509 17.3883 4.99887 17.3883 5.67744C17.3885 5.83856 17.3569 5.99815 17.2954 6.14705C17.2338 6.29595 17.1435 6.43124 17.0295 6.54518C16.9156 6.65911 16.7803 6.74945 16.6314 6.81102C16.4825 6.87259 16.3229 6.90417 16.1618 6.90397Z" fill="#687EFF"/>
</svg>
