<svg width="18" height="20" viewBox="0 0 18 20" fill="none" xmlns="http://www.w3.org/2000/svg">
<path d="M16.2963 6.66667H13.3333V4.44444C13.3333 3.2657 12.8651 2.13524 12.0316 1.30175C11.1981 0.468253 10.0676 0 8.88889 0C7.71015 0 6.57969 0.468253 5.74619 1.30175C4.9127 2.13524 4.44444 3.2657 4.44444 4.44444V6.66667H1.48148C1.08857 6.66667 0.711748 6.82275 0.433916 7.10058C0.156084 7.37841 0 7.75523 0 8.14815V18.5185C0 18.9114 0.156084 19.2883 0.433916 19.5661C0.711748 19.8439 1.08857 20 1.48148 20H16.2963C16.6892 20 17.066 19.8439 17.3439 19.5661C17.6217 19.2883 17.7778 18.9114 17.7778 18.5185V8.14815C17.7778 7.75523 17.6217 7.37841 17.3439 7.10058C17.066 6.82275 16.6892 6.66667 16.2963 6.66667ZM5.92593 4.44444C5.92593 3.65862 6.23809 2.90498 6.79376 2.34931C7.34942 1.79365 8.10306 1.48148 8.88889 1.48148C9.67472 1.48148 10.4284 1.79365 10.984 2.34931C11.5397 2.90498 11.8519 3.65862 11.8519 4.44444V6.66667H5.92593V4.44444ZM16.2963 18.5185H1.48148V8.14815H16.2963V18.5185ZM10 13.3333C10 13.5531 9.93483 13.7679 9.81274 13.9506C9.69065 14.1334 9.51712 14.2758 9.31409 14.3599C9.11106 14.444 8.88766 14.466 8.67212 14.4231C8.45659 14.3802 8.25861 14.2744 8.10322 14.119C7.94782 13.9636 7.842 13.7656 7.79913 13.5501C7.75626 13.3346 7.77826 13.1112 7.86236 12.9081C7.94645 12.7051 8.08887 12.5316 8.27159 12.4095C8.45431 12.2874 8.66913 12.2222 8.88889 12.2222C9.18357 12.2222 9.46619 12.3393 9.67456 12.5477C9.88294 12.756 10 13.0386 10 13.3333Z" fill="#687EFF"/>
</svg>
