<svg width="14" height="17" viewBox="0 0 14 17" fill="none" xmlns="http://www.w3.org/2000/svg">
<path d="M7.10652 7.13631H7.10663C7.93153 7.13547 8.7224 6.80735 9.30562 6.22398C9.88884 5.64061 10.2168 4.84966 10.2174 4.02476V4.02465C10.2174 3.40919 10.0349 2.80755 9.69292 2.29582C9.35097 1.78409 8.86495 1.38527 8.29632 1.14977C7.72769 0.914284 7.102 0.852709 6.49838 0.972837C5.89475 1.09297 5.34031 1.3894 4.90517 1.82465C4.47003 2.25991 4.17373 2.81442 4.05376 3.41808C3.93378 4.02173 3.99552 4.64741 4.23115 5.21598C4.46679 5.78454 4.86574 6.27046 5.37756 6.61228C5.88937 6.9541 6.49106 7.13646 7.10652 7.13631ZM3.00212 16.213H11.2108C11.7511 16.213 12.2691 15.9984 12.6511 15.6164C13.0331 15.2344 13.2477 14.7163 13.2477 14.1761V13.5519C13.2477 10.4585 10.4788 7.96768 7.10648 7.96768C3.73417 7.96768 0.965234 10.46 0.965234 13.5519V14.1761C0.965234 14.7163 1.17983 15.2344 1.56182 15.6164C1.94382 15.9984 2.46191 16.213 3.00212 16.213ZM2.01999 13.5534C2.01999 11.0704 4.28531 9.02395 7.10648 9.02395C9.92769 9.02395 12.193 11.0705 12.193 13.5519V14.1776C12.193 14.4381 12.0895 14.6879 11.9053 14.8721C11.7211 15.0563 11.4713 15.1597 11.2108 15.1597H3.00212C2.74164 15.1597 2.49183 15.0563 2.30765 14.8721C2.12346 14.6879 2.01999 14.4381 2.01999 14.1776V13.5534ZM5.96341 2.31486C6.30174 2.08891 6.69948 1.96838 7.10633 1.9685C7.65152 1.96906 8.17422 2.18588 8.55973 2.57139C8.94524 2.9569 9.16207 3.47961 9.16263 4.0248C9.16275 4.43164 9.04221 4.82938 8.81627 5.16772C8.59031 5.50608 8.26907 5.76983 7.89319 5.9256C7.51731 6.08137 7.10368 6.12216 6.70462 6.04282C6.30555 5.96347 5.93898 5.76756 5.65127 5.47985C5.36357 5.19215 5.16765 4.82558 5.08831 4.42651C5.00897 4.02745 5.04976 3.61381 5.20553 3.23793C5.3613 2.86206 5.62504 2.54082 5.96341 2.31486Z" fill="#12395D" stroke="#12395D" stroke-width="0.3"/>
</svg>
