<svg width="22" height="20" viewBox="0 0 22 20" fill="none" xmlns="http://www.w3.org/2000/svg">
<path d="M19.2561 15.1148H17.6212C17.5096 15.1148 17.405 15.1637 17.3352 15.2497C17.1724 15.4474 16.998 15.6381 16.8143 15.8195C16.0629 16.5716 15.1728 17.1711 14.1933 17.5846C13.1786 18.0132 12.0879 18.2331 10.9864 18.2311C9.87241 18.2311 8.79335 18.0125 7.77939 17.5846C6.79993 17.1711 5.90988 16.5716 5.15847 15.8195C4.40571 15.0699 3.80549 14.1814 3.39103 13.2032C2.9608 12.1892 2.74452 11.1125 2.74452 9.99855C2.74452 8.8846 2.96312 7.80786 3.39103 6.79391C3.80498 5.81484 4.40033 4.93345 5.15847 4.17763C5.91661 3.42182 6.798 2.82647 7.77939 2.41252C8.79335 1.98461 9.87241 1.76601 10.9864 1.76601C12.1003 1.76601 13.1794 1.98229 14.1933 2.41252C15.1747 2.82647 16.0561 3.42182 16.8143 4.17763C16.998 4.36135 17.1701 4.55205 17.3352 4.7474C17.405 4.83345 17.5119 4.88228 17.6212 4.88228H19.2561C19.4026 4.88228 19.4933 4.71949 19.4119 4.59624C17.6282 1.82415 14.5073 -0.0107319 10.9608 -0.00142964C5.3887 0.0125238 0.921266 4.53577 0.97708 10.1009C1.03289 15.5776 5.49335 19.9985 10.9864 19.9985C14.5236 19.9985 17.6305 18.166 19.4119 15.4009C19.491 15.2776 19.4026 15.1148 19.2561 15.1148ZM21.3236 9.85204L18.0236 7.2474C17.9003 7.14972 17.7212 7.23809 17.7212 7.39391V9.16135H10.4189C10.3166 9.16135 10.2329 9.24507 10.2329 9.34739V10.6497C10.2329 10.752 10.3166 10.8358 10.4189 10.8358H17.7212V12.6032C17.7212 12.759 17.9026 12.8474 18.0236 12.7497L21.3236 10.1451C21.3458 10.1277 21.3638 10.1054 21.3761 10.08C21.3885 10.0547 21.3949 10.0268 21.3949 9.99855C21.3949 9.97032 21.3885 9.94245 21.3761 9.91706C21.3638 9.89168 21.3458 9.86944 21.3236 9.85204Z" fill="#12395D"/>
</svg>
