<svg width="20" height="20" viewBox="0 0 20 20" fill="none" xmlns="http://www.w3.org/2000/svg">
<path d="M10 6.66667H14.4444C15.0556 6.66667 15.5556 6.16667 15.5556 5.55556C15.5556 4.94444 15.0556 4.44444 14.4444 4.44444H10C9.38889 4.44444 8.88889 4.94444 8.88889 5.55556C8.88889 6.16667 9.38889 6.66667 10 6.66667ZM10 11.1111H14.4444C15.0556 11.1111 15.5556 10.6111 15.5556 10C15.5556 9.38889 15.0556 8.88889 14.4444 8.88889H10C9.38889 8.88889 8.88889 9.38889 8.88889 10C8.88889 10.6111 9.38889 11.1111 10 11.1111ZM10 15.5556H14.4444C15.0556 15.5556 15.5556 15.0556 15.5556 14.4444C15.5556 13.8333 15.0556 13.3333 14.4444 13.3333H10C9.38889 13.3333 8.88889 13.8333 8.88889 14.4444C8.88889 15.0556 9.38889 15.5556 10 15.5556ZM4.44444 4.44444H6.66667V6.66667H4.44444V4.44444ZM4.44444 8.88889H6.66667V11.1111H4.44444V8.88889ZM4.44444 13.3333H6.66667V15.5556H4.44444V13.3333ZM18.8889 0H1.11111C0.5 0 0 0.5 0 1.11111V18.8889C0 19.5 0.5 20 1.11111 20H18.8889C19.5 20 20 19.5 20 18.8889V1.11111C20 0.5 19.5 0 18.8889 0ZM17.7778 17.7778H2.22222V2.22222H17.7778V17.7778Z" fill="#12395D"/>
</svg>

