<svg width="21" height="20" viewBox="0 0 21 20" fill="none" xmlns="http://www.w3.org/2000/svg">
<path d="M19.3894 19L15.0464 14.657M15.0464 14.657C15.7893 13.9141 16.3785 13.0321 16.7806 12.0615C17.1826 11.0909 17.3896 10.0506 17.3896 8.99996C17.3896 7.94936 17.1826 6.90905 16.7806 5.93842C16.3785 4.96779 15.7893 4.08585 15.0464 3.34296C14.3035 2.60007 13.4215 2.01078 12.4509 1.60874C11.4803 1.20669 10.44 0.999756 9.38937 0.999756C8.33876 0.999756 7.29845 1.20669 6.32782 1.60874C5.35719 2.01078 4.47525 2.60007 3.73237 3.34296C2.23204 4.84329 1.38916 6.87818 1.38916 8.99996C1.38916 11.1217 2.23204 13.1566 3.73237 14.657C5.2327 16.1573 7.26758 17.0002 9.38937 17.0002C11.5112 17.0002 13.546 16.1573 15.0464 14.657Z" stroke="#687EFF" stroke-width="1.5" stroke-linecap="round" stroke-linejoin="round"/>
</svg>
