<svg width="123" height="20" viewBox="0 0 123 20" fill="none" xmlns="http://www.w3.org/2000/svg">
<path d="M10 0L12.2451 6.90983H19.5106L13.6327 11.1803L15.8779 18.0902L10 13.8197L4.12215 18.0902L6.36729 11.1803L0.489435 6.90983H7.75486L10 0Z" fill="#FFBA00"/>
<path d="M35.5557 0L37.8008 6.90983H45.0662L39.1884 11.1803L41.4335 18.0902L35.5557 13.8197L29.6778 18.0902L31.923 11.1803L26.0451 6.90983H33.3105L35.5557 0Z" fill="#FFBA00"/>
<path d="M61.1113 0L63.3565 6.90983H70.6219L64.744 11.1803L66.9892 18.0902L61.1113 13.8197L55.2335 18.0902L57.4786 11.1803L51.6008 6.90983H58.8662L61.1113 0Z" fill="#FFBA00"/>
<path d="M86.6665 0L88.9116 6.90983H96.1771L90.2992 11.1803L92.5444 18.0902L86.6665 13.8197L80.7887 18.0902L83.0338 11.1803L77.1559 6.90983H84.4214L86.6665 0Z" fill="#FFBA00"/>
<path d="M112.222 0L114.467 6.90983H121.733L115.855 11.1803L118.1 18.0902L112.222 13.8197L106.344 18.0902L108.589 11.1803L102.712 6.90983H109.977L112.222 0Z" fill="#FFBA00"/>
</svg>
