<svg width="21" height="21" viewBox="0 0 21 21" fill="none" xmlns="http://www.w3.org/2000/svg">
<path fill-rule="evenodd" clip-rule="evenodd" d="M9.59111 2.16442C9.22459 2.64256 8.81157 3.38117 8.21064 4.45838L7.90645 5.00443L7.85157 5.10303C7.5725 5.60536 7.33529 6.03141 6.95482 6.31978C6.57064 6.61187 6.1018 6.71699 5.55668 6.83978L5.45063 6.86397L4.859 6.99792C3.69156 7.2621 2.89621 7.4435 2.35295 7.65838C1.82179 7.86676 1.71016 8.03885 1.66737 8.1756C1.62179 8.32071 1.62086 8.54304 1.93714 9.04722C2.25993 9.55885 2.80412 10.197 3.59854 11.1272L4.00226 11.5989L4.07203 11.6798C4.44691 12.117 4.75947 12.4816 4.90272 12.943C5.04505 13.4017 4.99761 13.8826 4.93993 14.4668L4.93063 14.5756L4.86924 15.2054C4.74831 16.4444 4.66831 17.2984 4.69528 17.9124C4.72319 18.5263 4.85249 18.6956 4.95575 18.7738C5.04691 18.8435 5.21621 18.9198 5.76784 18.7617C6.32877 18.6017 7.07482 18.2603 8.16785 17.757L8.72227 17.5021L8.82366 17.4556C9.33064 17.2203 9.76971 17.0175 10.2497 17.0175C10.7297 17.0175 11.1688 17.2203 11.6758 17.4547C11.7095 17.4709 11.7436 17.4864 11.7781 17.5012L12.3316 17.757C13.4246 18.2603 14.1706 18.6017 14.7316 18.7617C15.2832 18.9198 15.4525 18.8435 15.5437 18.7738C15.6469 18.6956 15.7762 18.5254 15.8041 17.9124C15.832 17.2984 15.7502 16.4444 15.6302 15.2054L15.5688 14.5756L15.5595 14.4668C15.5018 13.8826 15.4544 13.4017 15.5967 12.943C15.74 12.4816 16.0525 12.117 16.4274 11.6798L16.4972 11.5989L16.9009 11.1272C17.6953 10.197 18.2395 9.55885 18.5614 9.04722C18.8786 8.54304 18.8776 8.32164 18.8321 8.1756C18.7893 8.03885 18.6776 7.86676 18.1465 7.65838C17.6023 7.4435 16.8079 7.2621 15.6404 6.99792L15.0488 6.86397C15.0125 6.85466 14.9772 6.84722 14.9427 6.83978C14.3976 6.71699 13.9288 6.61187 13.5446 6.31978C13.1632 6.03141 12.9279 5.60629 12.6479 5.10303L12.5939 5.00443L12.2888 4.45838C11.6879 3.38117 11.2748 2.64256 10.9083 2.16442C10.5427 1.68628 10.3558 1.64535 10.2497 1.64535C10.1437 1.64535 9.95669 1.68628 9.59111 2.16442ZM8.48413 1.31605C8.92599 0.737443 9.4739 0.25 10.2497 0.25C11.0255 0.25 11.5725 0.737443 12.0162 1.31605C12.4516 1.88535 12.9139 2.71419 13.4786 3.72722L13.8125 4.32536C14.1772 4.98024 14.2711 5.11978 14.3883 5.20908C14.5 5.29373 14.646 5.3421 15.3558 5.50303L16.0069 5.65001C17.1009 5.89745 18.0023 6.10117 18.6581 6.35978C19.339 6.62862 19.9353 7.02397 20.1651 7.76164C20.3921 8.49187 20.1372 9.1635 19.7428 9.78955C19.3595 10.3989 18.7474 11.1151 17.9995 11.9896L17.5576 12.5058C17.0767 13.0677 16.9762 13.2054 16.9288 13.357C16.8814 13.5123 16.8851 13.6919 16.9586 14.4407L17.0246 15.1272C17.1381 16.2956 17.2302 17.2482 17.1976 17.9738C17.1651 18.7133 16.9976 19.4221 16.3883 19.8854C15.7669 20.3561 15.0441 20.304 14.3465 20.1031C13.6702 19.9096 12.8274 19.5217 11.8041 19.05L11.1939 18.7691C10.526 18.4621 10.3837 18.4128 10.2497 18.4128C10.1158 18.4128 9.97343 18.4621 9.30552 18.7691L8.69622 19.05C7.67203 19.5217 6.82924 19.9096 6.15296 20.1031C5.45528 20.3031 4.73249 20.3561 4.11203 19.8854C3.50179 19.4221 3.33435 18.7133 3.30179 17.9747C3.26923 17.2491 3.36133 16.2956 3.47482 15.1282L3.54179 14.4407C3.61435 13.691 3.61807 13.5123 3.5697 13.357C3.52319 13.2054 3.42272 13.0686 2.94179 12.5058L2.49993 11.9896C1.75295 11.1151 1.14086 10.3989 0.757602 9.79048C0.362252 9.1635 0.107368 8.49187 0.334345 7.76164C0.564113 7.02397 1.16039 6.62862 1.84132 6.35978C2.49714 6.10117 3.39854 5.89745 4.49249 5.65001L4.5511 5.63699L5.14273 5.50303C5.85342 5.3421 5.99854 5.29373 6.1111 5.20815C6.22831 5.11978 6.32226 4.98024 6.68784 4.32536L7.02087 3.72722C7.58552 2.71326 8.04785 1.88535 8.4832 1.31605H8.48413Z" fill="#687EFF"/>
</svg>
