<svg width="24" height="19" viewBox="0 0 24 19" fill="none" xmlns="http://www.w3.org/2000/svg">
<path d="M23.5938 2.43665C22.7281 2.81039 21.8056 3.05811 20.8438 3.1784C21.8332 2.59703 22.5884 1.68346 22.9434 0.582302C22.0209 1.12357 21.0024 1.5059 19.917 1.71926C19.041 0.801388 17.7926 0.23291 16.4307 0.23291C13.7884 0.23291 11.6612 2.34358 11.6612 4.93108C11.6612 5.30338 11.6932 5.66137 11.7718 6.00217C7.80392 5.81172 4.29296 3.94018 1.93437 1.08921C1.5226 1.79228 1.28107 2.59703 1.28107 3.46335C1.28107 5.09003 2.13225 6.53198 3.40103 7.3668C2.63423 7.35248 1.88199 7.13339 1.24469 6.7883C1.24469 6.80262 1.24469 6.82123 1.24469 6.83985C1.24469 9.12235 2.89905 11.0182 5.06848 11.455C4.67999 11.5595 4.25658 11.6096 3.81717 11.6096C3.51161 11.6096 3.20315 11.5924 2.9136 11.5294C3.53198 13.3895 5.28674 14.757 7.37324 14.8014C5.74943 16.0515 3.68767 16.8047 1.45567 16.8047C1.06427 16.8047 0.688872 16.7875 0.313477 16.7402C2.42762 18.0819 4.93317 18.848 7.63514 18.848C16.4176 18.848 21.2192 11.6884 21.2192 5.48237C21.2192 5.27474 21.2119 5.07427 21.2018 4.87524C22.149 4.21368 22.9449 3.38746 23.5938 2.43665Z" fill="#687EFF"/>
</svg>
