<svg width="40" height="44" viewBox="0 0 40 44" fill="none" xmlns="http://www.w3.org/2000/svg">
<path d="M38.3636 42V37.1516C38.3636 34.5798 37.342 32.1133 35.5235 30.2948C33.7049 28.4762 31.2385 27.4546 28.6667 27.4546H11.697C9.12517 27.4546 6.65871 28.4762 4.84018 30.2948C3.02164 32.1133 2 34.5798 2 37.1516V42" stroke="#687EFF" stroke-width="3" stroke-linecap="round" stroke-linejoin="round"/>
<path d="M20.1818 21.3939C25.5373 21.3939 29.8788 17.0525 29.8788 11.697C29.8788 6.34148 25.5373 2 20.1818 2C14.8263 2 10.4849 6.34148 10.4849 11.697C10.4849 17.0525 14.8263 21.3939 20.1818 21.3939Z" stroke="#687EFF" stroke-width="3" stroke-linecap="round" stroke-linejoin="round"/>
<path d="M33.8966 34.5246C33.7339 34.5247 33.5776 34.4615 33.4609 34.3485C33.3442 34.2355 33.2762 34.0815 33.2715 33.9194C33.1546 29.8601 31.607 28.5829 31.592 28.5704C31.4629 28.4682 31.3792 28.3195 31.3588 28.1563C31.3385 27.9931 31.3832 27.8284 31.4833 27.6978C31.5827 27.5681 31.7294 27.4829 31.8915 27.4605C32.0535 27.4381 32.2179 27.4803 32.349 27.5781C32.4315 27.6404 34.3847 29.1533 34.5216 33.8832C34.5263 34.0483 34.4651 34.2086 34.3514 34.3287C34.2378 34.4489 34.0809 34.5191 33.9153 34.524L33.8966 34.5246Z" fill="#687EFF"/>
<path d="M33.9001 38.2066C33.4114 38.2067 32.9337 38.0623 32.5273 37.7916C32.1209 37.521 31.8041 37.1362 31.617 36.6859C31.4299 36.2357 31.3808 35.7402 31.4761 35.2622C31.5714 34.7842 31.8066 34.345 32.1522 34.0004C32.4977 33.6557 32.9379 33.421 33.4172 33.3258C33.8965 33.2307 34.3934 33.2795 34.8449 33.466C35.2964 33.6524 35.6823 33.9683 35.9538 34.3735C36.2254 34.7787 36.3703 35.2551 36.3703 35.7425C36.3696 36.3957 36.1092 37.022 35.6461 37.4839C35.183 37.9459 34.5551 38.2058 33.9001 38.2066ZM33.9001 34.5251C33.6587 34.525 33.4226 34.5963 33.2218 34.73C33.0209 34.8637 32.8644 35.0538 32.7719 35.2762C32.6794 35.4987 32.6551 35.7435 32.7022 35.9796C32.7492 36.2158 32.8654 36.4328 33.0361 36.6031C33.2068 36.7734 33.4243 36.8895 33.6611 36.9365C33.8979 36.9835 34.1434 36.9594 34.3665 36.8673C34.5896 36.7752 34.7803 36.6191 34.9144 36.4189C35.0486 36.2187 35.1202 35.9833 35.1202 35.7425C35.1199 35.4199 34.9912 35.1105 34.7625 34.8823C34.5338 34.6541 34.2237 34.5256 33.9001 34.5251Z" fill="#687EFF"/>
<path d="M8.22612 34.5282C8.06776 34.5286 7.91515 34.469 7.79913 34.3615C7.68311 34.254 7.61233 34.1066 7.60108 33.9491C7.26044 29.1649 9.90373 27.6359 10.0162 27.5729C10.1606 27.4917 10.3315 27.4709 10.4912 27.5153C10.6509 27.5597 10.7864 27.6655 10.8679 27.8095C10.9493 27.9535 10.9701 28.1238 10.9256 28.2831C10.8811 28.4424 10.775 28.5775 10.6307 28.6588C10.5356 28.7149 8.56802 29.926 8.84741 33.8612C8.8591 34.0261 8.80462 34.1889 8.69596 34.3137C8.5873 34.4386 8.43336 34.5153 8.268 34.5269L8.22612 34.5282Z" fill="#687EFF"/>
<path d="M6.96365 39.5185C6.86693 39.519 6.77143 39.497 6.68466 39.4544C6.59789 39.4118 6.52223 39.3497 6.46361 39.2729C6.15851 38.8733 5.93374 38.4187 5.8017 37.934C5.51154 36.9899 5.60674 35.9698 6.06658 35.0953C6.52643 34.2208 7.31377 33.5627 8.25748 33.2639C8.7051 33.1383 9.17332 33.103 9.63478 33.16C10.0962 33.2169 10.5417 33.365 10.9452 33.5955C11.6522 34.0029 12.2177 34.6158 12.5662 35.3523C12.9147 36.0888 13.0295 36.9138 12.8953 37.7171C12.8681 37.8802 12.7771 38.0258 12.6422 38.1219C12.5073 38.2181 12.3397 38.2569 12.1762 38.2298C12.0126 38.2027 11.8666 38.1119 11.7702 37.9774C11.6738 37.8429 11.6349 37.6757 11.6621 37.5126C11.7538 36.9622 11.6759 36.397 11.4386 35.8917C11.2014 35.3864 10.8159 34.9648 10.3332 34.6826C10.073 34.5327 9.78539 34.4361 9.48727 34.3983C9.18914 34.3605 8.88645 34.3824 8.59688 34.4626C7.97057 34.6715 7.45211 35.1182 7.15396 35.7059C6.85582 36.2936 6.80203 36.9748 7.00427 37.6017C7.09472 37.9336 7.24882 38.2447 7.45805 38.5181C7.52844 38.6104 7.57158 38.7206 7.58261 38.8361C7.59364 38.9516 7.57212 39.0679 7.52048 39.1719C7.46884 39.2758 7.38912 39.3634 7.2903 39.4246C7.19149 39.4859 7.07749 39.5184 6.96115 39.5185H6.96365Z" fill="#687EFF"/>
<path d="M12.2855 38.2349C12.2611 38.2349 12.2361 38.2349 12.2111 38.2311L11.5067 38.1482C11.4251 38.1386 11.3463 38.113 11.2746 38.0729C11.203 38.0329 11.14 37.9792 11.0892 37.9148C11.0384 37.8505 11.0007 37.7768 10.9785 37.698C10.9562 37.6191 10.9498 37.5367 10.9594 37.4554C10.9691 37.374 10.9948 37.2954 11.0349 37.224C11.0751 37.1525 11.129 37.0897 11.1935 37.039C11.3238 36.9367 11.4895 36.8901 11.6542 36.9096L12.3586 36.9932C12.5168 37.0119 12.6618 37.0902 12.7641 37.2121C12.8663 37.3339 12.9181 37.4901 12.9087 37.6487C12.8994 37.8073 12.8297 37.9563 12.7139 38.0654C12.598 38.1745 12.4448 38.2353 12.2855 38.2355V38.2349Z" fill="#687EFF"/>
<path d="M6.96379 39.5208C6.81703 39.521 6.67488 39.4697 6.56224 39.3758C6.44961 39.282 6.37367 39.1517 6.34773 39.0076C6.32179 38.8635 6.34751 38.715 6.42038 38.5879C6.49324 38.4609 6.60861 38.3635 6.74627 38.3127L7.49632 38.0366C7.57327 38.0079 7.65513 37.9947 7.73722 37.9976C7.81931 38.0005 7.90002 38.0195 7.97474 38.0535C8.04947 38.0875 8.11675 38.1358 8.17274 38.1958C8.22873 38.2557 8.27233 38.3261 8.30106 38.4028C8.32979 38.4795 8.34308 38.5612 8.34018 38.643C8.33727 38.7249 8.31822 38.8054 8.28412 38.8799C8.25003 38.9545 8.20154 39.0215 8.14144 39.0774C8.08134 39.1332 8.0108 39.1767 7.93385 39.2054L7.1838 39.4821C7.11339 39.5081 7.03886 39.5212 6.96379 39.5208Z" fill="#687EFF"/>
</svg>
