<svg width="20" height="20" viewBox="0 0 20 20" fill="none" xmlns="http://www.w3.org/2000/svg">
<path d="M9.94747 8.91992e-05C10.2751 8.91992e-05 10.5977 0.021348 10.8979 0.0713688C11.1935 0.110101 11.4851 0.174538 11.7695 0.263949C12.0546 0.350235 12.3335 0.457779 12.6123 0.592835C12.8837 0.721639 13.1626 0.879204 13.4414 1.05053C13.9129 1.35065 14.3768 1.59325 14.8495 1.78708C15.7801 2.15953 16.7641 2.38115 17.7645 2.4436C18.2722 2.47987 18.7936 2.50113 19.3364 2.50113V7.5032C19.3364 8.4536 19.2151 9.35397 18.9725 10.2118C18.7394 11.0574 18.4083 11.8729 17.9858 12.6416C17.5651 13.4092 17.0673 14.132 16.5002 14.7987C15.9244 15.4806 15.3009 16.1209 14.6344 16.7145C13.9592 17.3099 13.2479 17.8633 12.5048 18.3715C11.762 18.8867 11.0117 19.3656 10.2614 19.8008L9.96123 19.9796L9.6611 19.8008C8.88978 19.3543 8.13638 18.8774 7.40266 18.3715C6.65535 17.869 5.94376 17.3154 5.27303 16.7145C4.60699 16.1208 3.98392 15.4806 3.40851 14.7987C2.84289 14.1291 2.34289 13.4068 1.91539 12.6416C1.50013 11.8695 1.16933 11.0549 0.928727 10.2118C0.684587 9.32989 0.56422 8.41829 0.571078 7.5032V2.50113C1.11505 2.50113 1.63652 2.47987 2.14423 2.4436C2.64402 2.40889 3.14056 2.33742 3.62985 2.22976C4.1088 2.12222 4.58775 1.97966 5.05919 1.78708C5.5484 1.58964 6.01743 1.3455 6.45977 1.05803C7.01 0.70038 7.56773 0.43652 8.11796 0.262698C8.71054 0.0810373 9.32772 -0.00755336 9.94747 8.91992e-05ZM18.0783 3.73039C17.1317 3.68446 16.1939 3.5262 15.2847 3.25894C14.3802 2.98915 13.5188 2.59209 12.7261 2.0797C12.315 1.80984 11.8685 1.59816 11.3993 1.45069C10.9307 1.30905 10.4433 1.23907 9.95372 1.24311C9.46052 1.23992 8.96956 1.30987 8.49687 1.45069C8.02701 1.59337 7.58108 1.80537 7.17382 2.0797C6.37981 2.59489 5.5161 2.99368 4.609 3.26394C3.72239 3.52155 2.7945 3.67912 1.8216 3.73664V7.50946C1.8216 8.33855 1.92914 9.13138 2.14423 9.89545C2.36336 10.6529 2.6653 11.3838 3.04461 12.0751C3.42845 12.7736 3.88087 13.4321 4.39517 14.0409C4.91663 14.6549 5.47311 15.2264 6.07336 15.7691C6.67361 16.3131 7.30262 16.8133 7.9604 17.2773C8.62442 17.7425 9.2897 18.1639 9.95372 18.549C10.6337 18.1532 11.2966 17.7289 11.9408 17.2773C12.6029 16.8148 13.2353 16.3111 13.8341 15.7691C14.4343 15.2264 14.9921 14.6549 15.5135 14.0409C16.0279 13.4321 16.4803 12.7736 16.8641 12.0751C17.2417 11.3847 17.5392 10.6534 17.7507 9.89545C17.9723 9.11964 18.0826 8.31629 18.0783 7.50946V3.73039Z" fill="#687EFF"/>
<path fill-rule="evenodd" clip-rule="evenodd" d="M14.6094 5.88871L14.0591 5.41602L13.5514 5.45978L8.09917 11.8975L6.24214 9.24636L5.74194 9.16132L5.16295 9.57524L5.07666 10.0754L7.4639 13.4844L7.73526 13.6344L8.30675 13.6694L8.59937 13.5419L14.6456 6.39517L14.6094 5.88871Z" fill="#687EFF"/>
</svg>
